<svg width="26" height="16" viewBox="0 0 26 16" fill="none" xmlns="http://www.w3.org/2000/svg">
<path d="M10.6118 6.39731L10.3419 6.7988L10.7343 7.08179C11.8821 7.90963 12.6161 9.25582 12.6161 10.8201C12.6161 13.2879 10.5376 15.2698 8.00893 15.2698H0.580357C0.548453 15.2698 0.529656 15.2646 0.520963 15.2612C0.516528 15.2596 0.514044 15.2581 0.512961 15.2574L0.511894 15.2567L0.511675 15.2565L0.51158 15.2564L0.511067 15.2557C0.510571 15.2549 0.509361 15.2529 0.507881 15.2491C0.505011 15.2417 0.5 15.2244 0.5 15.1942V0.57554C0.5 0.545346 0.505011 0.528126 0.507881 0.520724C0.509361 0.51691 0.510571 0.514891 0.511067 0.514128L0.511579 0.513407L0.511675 0.513297L0.511893 0.51311L0.512961 0.512361C0.514044 0.511669 0.516528 0.510229 0.520963 0.508538C0.529656 0.505222 0.548453 0.5 0.580357 0.5H7.3125C9.38812 0.5 11.2232 2.14725 11.2232 4.25899C11.2232 5.0915 11.0148 5.79782 10.6118 6.39731ZM2.90179 2.4928H2.40179V2.9928V5.7554V6.2554H2.90179H7.3125C8.25372 6.2554 9.20536 5.48634 9.20536 4.3741C9.20536 3.4306 8.42387 2.4928 7.3125 2.4928H2.90179ZM2.40179 12.8921V13.3921H2.90179H8.125C9.55792 13.3921 10.7143 12.2513 10.7143 10.8201C10.7143 9.38899 9.55791 8.24821 8.125 8.24821H2.90179H2.40179V8.74821V12.8921ZM22.2591 12.7015H24.6656L24.5232 12.9839C23.4472 14.5677 21.7489 15.5 19.9643 15.5C16.8888 15.5 14.4286 12.9759 14.4286 9.78418C14.4286 6.59242 16.8888 4.06835 19.9643 4.06835C23.0398 4.06835 25.5 6.59242 25.5 9.78418V10.0144C25.5 10.0446 25.495 10.0618 25.4921 10.0692C25.4906 10.073 25.4894 10.075 25.4889 10.0758L25.4884 10.0765L25.4883 10.0766L25.4881 10.0768L25.487 10.0776C25.486 10.0783 25.4835 10.0797 25.479 10.0814C25.4703 10.0847 25.4515 10.0899 25.4196 10.0899H16.9464H16.3167L16.4594 10.7033C16.8533 12.3958 18.1932 13.6223 19.9643 13.6223C20.7655 13.6223 21.5809 13.3581 22.2591 12.7015ZM22.5179 8.55756H23.424L22.9409 7.79097C22.2825 6.7464 21.2047 6.06116 19.9643 6.06116C18.7545 6.06116 17.5237 6.72294 16.9642 7.83246L16.5987 8.55756H17.4107H22.5179ZM22.3661 2.37771H17.0982V1.19066H22.3661V2.37771Z" fill="white" stroke="white"/>
</svg>
