<svg width="25" height="22" viewBox="0 0 25 22" fill="none" xmlns="http://www.w3.org/2000/svg">
<path d="M0.614416 10.0918L0.606132 10.0887L0.597743 10.0859C0.564395 10.0747 0.544785 10.0573 0.530159 10.0345C0.513113 10.008 0.5 9.96826 0.5 9.92104C0.5 9.87382 0.513113 9.83408 0.530159 9.80757C0.544785 9.78482 0.564395 9.76739 0.597743 9.75617L0.609041 9.75237L0.620146 9.74804L24.2925 0.510165L24.2925 0.510196L24.2978 0.508048C24.3217 0.498411 24.3386 0.49871 24.354 0.50229C24.3727 0.506616 24.399 0.518673 24.4265 0.544406C24.4865 0.600643 24.5077 0.67626 24.4973 0.731866C24.4972 0.732358 24.4971 0.732849 24.497 0.733338L20.2116 21.3667L20.2115 21.3667L20.2107 21.3711C20.1992 21.4291 20.1632 21.4688 20.1072 21.4887C20.0476 21.5099 19.9825 21.5016 19.9312 21.4627L19.9312 21.4627L19.9257 21.4586L14.1806 17.2346C13.6504 16.8354 12.8879 16.7707 12.3777 17.264L9.18988 19.8952C9.10965 19.9529 9.02134 19.9626 8.96826 19.95C8.94397 19.9442 8.93427 19.9359 8.93177 19.9334L8.93168 19.9333C8.93058 19.9323 8.92253 19.9248 8.91703 19.897L8.91201 19.8717L8.90441 19.847L6.66384 12.5747L6.59162 12.3403L6.36204 12.2539L0.614416 10.0918ZM9.28811 17.9984C9.60095 17.9697 9.97723 17.7266 9.99733 17.2802L10.2866 14.9454L10.2904 14.9148V14.8839C10.2904 14.5992 10.4598 14.3306 10.7245 14.0622L19.9369 5.35559C20.0768 5.25824 20.1758 5.1101 20.203 4.93216C20.2318 4.74306 20.1716 4.57667 20.0954 4.46134C19.9511 4.24308 19.5985 4.0207 19.2095 4.21689L19.1903 4.22657L19.172 4.23788L7.90387 11.1955C7.16804 11.5214 6.90172 12.3975 7.27806 13.1084L8.42987 17.3689C8.48066 17.5684 8.59192 17.7425 8.7598 17.8598C8.92513 17.9752 9.11521 18.0143 9.28811 17.9984Z" fill="white" stroke="white"/>
</svg>
